<mxfile modified="2021-10-29T17:50:32.041Z" host="app.diagrams.net" agent="5.0 (Windows NT 10.0; Win64; x64) AppleWebKit/537.36 (KHTML, like Gecko) Chrome/95.0.4638.54 Safari/537.36" etag="aL7DR8mobeRda1LxOLOH" version="14.9.2" type="github">
  <diagram id="WI9T0HZ2pTsCkuznbFz-" name="Page-1">
    <mxGraphModel dx="1833" dy="1134" grid="1" gridSize="10" guides="1" tooltips="1" connect="1" arrows="1" fold="1" page="1" pageScale="1" pageWidth="1169" pageHeight="1654" math="0" shadow="0">
      <root>
        <mxCell id="0" />
        <mxCell id="1" parent="0" />
        <mxCell id="Ft62hbUQw5UP1unR5k6m-27" value="" style="edgeStyle=orthogonalEdgeStyle;rounded=0;orthogonalLoop=1;jettySize=auto;html=1;" edge="1" parent="1" source="Ft62hbUQw5UP1unR5k6m-19" target="Ft62hbUQw5UP1unR5k6m-24">
          <mxGeometry relative="1" as="geometry" />
        </mxCell>
        <mxCell id="Ft62hbUQw5UP1unR5k6m-19" value="&lt;font style=&quot;font-size: 18px&quot; face=&quot;Times New Roman&quot;&gt;EVENT-SERVICE&amp;nbsp;&lt;/font&gt;" style="rounded=1;whiteSpace=wrap;html=1;fillColor=#fff2cc;strokeColor=#d6b656;" vertex="1" parent="1">
          <mxGeometry x="520" y="420" width="230" height="83.92" as="geometry" />
        </mxCell>
        <mxCell id="Ft62hbUQw5UP1unR5k6m-28" style="edgeStyle=orthogonalEdgeStyle;rounded=0;orthogonalLoop=1;jettySize=auto;html=1;" edge="1" parent="1" source="Ft62hbUQw5UP1unR5k6m-20" target="Ft62hbUQw5UP1unR5k6m-22">
          <mxGeometry relative="1" as="geometry" />
        </mxCell>
        <mxCell id="Ft62hbUQw5UP1unR5k6m-20" value="&lt;p&gt;&lt;font style=&quot;font-size: 18px&quot; face=&quot;Times New Roman&quot;&gt;AUTH-SERVICE&lt;/font&gt;&lt;/p&gt;" style="rounded=1;whiteSpace=wrap;html=1;fillColor=#fff2cc;strokeColor=#d6b656;" vertex="1" parent="1">
          <mxGeometry x="524.8" y="240" width="230" height="85.14" as="geometry" />
        </mxCell>
        <mxCell id="Ft62hbUQw5UP1unR5k6m-22" value="&lt;font style=&quot;font-size: 14px&quot; face=&quot;Times New Roman&quot;&gt;MongoDB&lt;/font&gt;" style="shape=cylinder3;whiteSpace=wrap;html=1;boundedLbl=1;backgroundOutline=1;size=15;fillColor=#f8cecc;strokeColor=#b85450;" vertex="1" parent="1">
          <mxGeometry x="860" y="230" width="70" height="80" as="geometry" />
        </mxCell>
        <mxCell id="Ft62hbUQw5UP1unR5k6m-24" value="&lt;font style=&quot;font-size: 14px&quot; face=&quot;Times New Roman&quot;&gt;Postgres&lt;/font&gt;" style="shape=cylinder3;whiteSpace=wrap;html=1;boundedLbl=1;backgroundOutline=1;size=15;fillColor=#f8cecc;strokeColor=#b85450;" vertex="1" parent="1">
          <mxGeometry x="860" y="403.92" width="70" height="80" as="geometry" />
        </mxCell>
        <mxCell id="Ft62hbUQw5UP1unR5k6m-43" style="edgeStyle=orthogonalEdgeStyle;rounded=0;orthogonalLoop=1;jettySize=auto;html=1;entryX=0;entryY=0.5;entryDx=0;entryDy=0;fontColor=#99FFCC;" edge="1" parent="1" source="Ft62hbUQw5UP1unR5k6m-31" target="Ft62hbUQw5UP1unR5k6m-20">
          <mxGeometry relative="1" as="geometry">
            <Array as="points">
              <mxPoint x="460" y="365" />
              <mxPoint x="460" y="283" />
            </Array>
          </mxGeometry>
        </mxCell>
        <mxCell id="Ft62hbUQw5UP1unR5k6m-44" style="edgeStyle=orthogonalEdgeStyle;rounded=0;orthogonalLoop=1;jettySize=auto;html=1;entryX=0;entryY=0.5;entryDx=0;entryDy=0;fontColor=#99FFCC;" edge="1" parent="1" source="Ft62hbUQw5UP1unR5k6m-31" target="Ft62hbUQw5UP1unR5k6m-19">
          <mxGeometry relative="1" as="geometry" />
        </mxCell>
        <mxCell id="Ft62hbUQw5UP1unR5k6m-47" style="edgeStyle=orthogonalEdgeStyle;rounded=0;orthogonalLoop=1;jettySize=auto;html=1;exitX=0.25;exitY=0;exitDx=0;exitDy=0;entryX=0;entryY=0.25;entryDx=0;entryDy=0;fontColor=#99FFCC;" edge="1" parent="1" source="Ft62hbUQw5UP1unR5k6m-31" target="Ft62hbUQw5UP1unR5k6m-45">
          <mxGeometry relative="1" as="geometry" />
        </mxCell>
        <mxCell id="Ft62hbUQw5UP1unR5k6m-31" value="&lt;font style=&quot;font-size: 20px&quot; face=&quot;Times New Roman&quot;&gt;A&lt;br&gt;P&lt;br&gt;I&lt;br&gt;&lt;br&gt;G&lt;br&gt;A&lt;br&gt;T&lt;br&gt;E&lt;br&gt;W&lt;br&gt;A&lt;br&gt;Y&lt;/font&gt;" style="rounded=1;whiteSpace=wrap;html=1;rotation=0;direction=south;arcSize=7;fillColor=#ffcc99;strokeColor=#36393d;" vertex="1" parent="1">
          <mxGeometry x="293.22" y="153.57" width="100" height="450" as="geometry" />
        </mxCell>
        <mxCell id="Ft62hbUQw5UP1unR5k6m-36" value="" style="shape=image;verticalLabelPosition=bottom;labelBackgroundColor=#ffffff;verticalAlign=top;aspect=fixed;imageAspect=0;image=https://upload.wikimedia.org/wikipedia/commons/thumb/1/17/GraphQL_Logo.svg/512px-GraphQL_Logo.svg.png;" vertex="1" parent="1">
          <mxGeometry x="310" y="140" width="66.43" height="66.43" as="geometry" />
        </mxCell>
        <mxCell id="Ft62hbUQw5UP1unR5k6m-37" value="" style="aspect=fixed;perimeter=ellipsePerimeter;html=1;align=center;shadow=0;dashed=0;fontColor=#4277BB;labelBackgroundColor=#ffffff;fontSize=12;spacingTop=3;image;image=img/lib/ibm/applications/microservice.svg;" vertex="1" parent="1">
          <mxGeometry x="720" y="470" width="54.8" height="40" as="geometry" />
        </mxCell>
        <mxCell id="Ft62hbUQw5UP1unR5k6m-38" value="" style="aspect=fixed;perimeter=ellipsePerimeter;html=1;align=center;shadow=0;dashed=0;fontColor=#4277BB;labelBackgroundColor=#ffffff;fontSize=12;spacingTop=3;image;image=img/lib/ibm/applications/microservice.svg;" vertex="1" parent="1">
          <mxGeometry x="720" y="290" width="54.8" height="40" as="geometry" />
        </mxCell>
        <mxCell id="Ft62hbUQw5UP1unR5k6m-41" value="" style="shape=image;verticalLabelPosition=bottom;labelBackgroundColor=#ffffff;verticalAlign=top;aspect=fixed;imageAspect=0;image=https://www.ambient-it.net/wp-content/uploads/2018/07/mongodb-175.png;" vertex="1" parent="1">
          <mxGeometry x="900" y="230" width="51.43" height="45" as="geometry" />
        </mxCell>
        <mxCell id="Ft62hbUQw5UP1unR5k6m-42" value="" style="shape=image;verticalLabelPosition=bottom;labelBackgroundColor=#ffffff;verticalAlign=top;aspect=fixed;imageAspect=0;image=https://download.logo.wine/logo/PostgreSQL/PostgreSQL-Logo.wine.png;" vertex="1" parent="1">
          <mxGeometry x="883.01" y="400" width="85.41" height="57" as="geometry" />
        </mxCell>
        <mxCell id="Ft62hbUQw5UP1unR5k6m-45" value="" style="shape=image;html=1;verticalAlign=top;verticalLabelPosition=bottom;labelBackgroundColor=#ffffff;imageAspect=0;aspect=fixed;image=https://cdn4.iconfinder.com/data/icons/redis-2/1451/Untitled-2-128.png;fontColor=#99FFCC;" vertex="1" parent="1">
          <mxGeometry x="560" y="50" width="80" height="80" as="geometry" />
        </mxCell>
        <mxCell id="Ft62hbUQw5UP1unR5k6m-53" style="edgeStyle=orthogonalEdgeStyle;rounded=0;orthogonalLoop=1;jettySize=auto;html=1;fontColor=#99FFCC;" edge="1" parent="1" source="Ft62hbUQw5UP1unR5k6m-52" target="Ft62hbUQw5UP1unR5k6m-31">
          <mxGeometry relative="1" as="geometry" />
        </mxCell>
        <mxCell id="Ft62hbUQw5UP1unR5k6m-52" value="" style="shape=image;html=1;verticalAlign=top;verticalLabelPosition=bottom;labelBackgroundColor=#ffffff;imageAspect=0;aspect=fixed;image=https://cdn4.iconfinder.com/data/icons/miu/24/device-smartphones-iphones-horizontal-outline-stroke-128.png;fontColor=#99FFCC;" vertex="1" parent="1">
          <mxGeometry x="30" y="314.57" width="128" height="128" as="geometry" />
        </mxCell>
      </root>
    </mxGraphModel>
  </diagram>
</mxfile>
